<svg id="visual" viewBox="0 0 900 600" width="900" height="600" xmlns="http://www.w3.org/2000/svg" xmlns:xlink="http://www.w3.org/1999/xlink" version="1.1"><rect x="0" y="0" width="900" height="600" fill="#233D4D"></rect><defs><linearGradient id="grad1_0" x1="33.3%" y1="100%" x2="100%" y2="0%"><stop offset="20%" stop-color="#eeeeee" stop-opacity="1"></stop><stop offset="80%" stop-color="#eeeeee" stop-opacity="1"></stop></linearGradient></defs><defs><linearGradient id="grad2_0" x1="0%" y1="100%" x2="66.7%" y2="0%"><stop offset="20%" stop-color="#eeeeee" stop-opacity="1"></stop><stop offset="80%" stop-color="#eeeeee" stop-opacity="1"></stop></linearGradient></defs><g transform="translate(900, 600)"><path d="M-486.7 0C-486.9 -70.9 -487 -141.8 -449.7 -186.3C-412.4 -230.8 -337.8 -248.9 -290.6 -290.6C-243.4 -332.3 -223.7 -397.6 -179.9 -434.2C-136 -470.8 -68 -478.8 0 -486.7L0 0Z" fill="#4A7C59"></path></g><g transform="translate(0, 0)"><path d="M486.7 0C486.6 69.2 486.5 138.4 449.7 186.3C412.9 234.2 339.4 260.8 285 285C230.5 309.1 195.1 330.8 150.8 364C106.5 397.2 53.2 442 0 486.7L0 0Z" fill="#4A7C59"></path></g></svg>